<?xml version="1.0" standalone="no"?>
<!DOCTYPE svg PUBLIC "-//W3C//DTD SVG 20010904//EN"
 "http://www.w3.org/TR/2001/REC-SVG-20010904/DTD/svg10.dtd">
<svg version="1.0" xmlns="http://www.w3.org/2000/svg"
 width="2133.000000pt" height="2133.000000pt" viewBox="0 0 2133.000000 2133.000000"
 preserveAspectRatio="xMidYMid meet">

<g transform="translate(0.000000,2133.000000) scale(0.100000,-0.100000)"
fill="#000000" stroke="none">
<path d="M10205 20622 c-36 -4 -61 -12 -62 -19 -2 -10 108 -13 525 -13 463 0
529 2 529 15 0 13 -30 15 -206 15 -113 0 -323 2 -466 4 -143 2 -287 1 -320 -2z"/>
<path d="M9474 20490 c0 -18 7 -20 57 -20 66 0 89 7 89 26 0 11 -17 14 -73 14
-66 0 -73 -2 -73 -20z"/>
<path d="M11765 20490 c-4 -6 15 -10 49 -10 31 0 56 5 56 10 0 6 -22 10 -49
10 -28 0 -53 -4 -56 -10z"/>
<path d="M9100 20391 c0 -5 -8 -12 -17 -14 -17 -4 -17 -5 0 -6 9 0 17 -5 17
-11 0 -14 43 -13 74 2 20 9 23 14 15 25 -13 15 -89 18 -89 4z"/>
<path d="M8765 20270 c-11 -18 5 -30 40 -30 28 0 45 13 45 36 0 9 -79 3 -85
-6z"/>
<path d="M12522 20263 c-6 -2 -10 -9 -6 -14 7 -12 51 -12 59 1 3 6 2 10 -4 10
-5 0 -15 2 -23 4 -7 3 -19 2 -26 -1z"/>
<path d="M12770 20150 c0 -5 9 -10 21 -10 11 0 17 5 14 10 -3 6 -13 10 -21 10
-8 0 -14 -4 -14 -10z"/>
<path d="M8540 20140 c-12 -8 -10 -10 8 -10 13 0 20 4 17 10 -7 12 -6 12 -25
0z"/>
<path d="M8318 20053 c-20 -5 -32 -33 -20 -45 16 -16 67 -5 70 16 4 16 -14 38
-28 35 -3 -1 -12 -3 -22 -6z"/>
<path d="M8088 19913 c6 -2 10 -9 6 -14 -3 -5 4 -9 16 -9 12 0 19 4 15 9 -3 5
3 12 12 14 10 3 0 5 -22 5 -22 0 -34 -2 -27 -5z"/>
<path d="M7757 19693 c-12 -11 -8 -23 8 -23 8 0 15 7 15 15 0 16 -12 20 -23 8z"/>
<path d="M7621 19576 c-8 -10 -8 -16 3 -25 10 -9 16 -8 26 3 12 15 6 36 -9 36
-5 0 -14 -6 -20 -14z"/>
<path d="M6817 18783 c-13 -12 -7 -53 7 -53 20 0 39 27 32 45 -6 15 -28 20
-39 8z"/>
<path d="M6697 18648 c-2 -7 0 -21 5 -31 7 -15 12 -16 24 -6 21 17 18 49 -5
49 -11 0 -21 -6 -24 -12z"/>
<path d="M6471 18306 c-14 -16 -4 -46 14 -46 16 0 29 35 20 50 -9 14 -20 13
-34 -4z"/>
<path d="M6352 18081 c-12 -33 -1 -57 22 -48 16 7 21 33 10 61 -9 24 -21 19
-32 -13z"/>
<path d="M6236 17864 c-17 -44 4 -78 31 -52 9 10 12 24 7 41 -7 30 -28 36 -38
11z"/>
<path d="M6124 17610 c1 -27 18 -27 28 -1 6 16 3 21 -11 21 -12 0 -18 -7 -17
-20z"/>
<path d="M6015 17331 c-3 -5 -1 -12 5 -16 5 -3 10 1 10 9 0 18 -6 21 -15 7z"/>
<path d="M6016 17291 c-4 -7 -5 -15 -2 -18 9 -9 19 4 14 18 -4 11 -6 11 -12 0z"/>
<path d="M5892 16954 c-15 -31 -15 -45 -2 -79 15 -40 40 -15 40 40 0 54 -22
76 -38 39z"/>
<path d="M5786 16402 c-3 -4 -8 -49 -12 -99 -9 -126 7 -182 35 -115 8 19 9 53
2 121 -10 94 -14 110 -25 93z"/>
<path d="M5778 15148 c-3 -46 4 -133 12 -141 10 -11 30 101 23 136 -6 33 -32
36 -35 5z"/>
<path d="M15540 14838 c0 -19 2 -20 10 -8 13 19 13 30 0 30 -5 0 -10 -10 -10
-22z"/>
<path d="M5900 14469 c0 -5 5 -7 10 -4 6 3 10 8 10 11 0 2 -4 4 -10 4 -5 0
-10 -5 -10 -11z"/>
<path d="M5900 14425 c0 -8 5 -15 10 -15 6 0 10 7 10 15 0 8 -4 15 -10 15 -5
0 -10 -7 -10 -15z"/>
<path d="M15420 14305 c0 -14 5 -25 10 -25 6 0 10 4 10 9 0 5 3 16 6 25 4 11
1 16 -10 16 -10 0 -16 -9 -16 -25z"/>
<path d="M15302 13973 c5 -25 28 -28 28 -4 0 12 -6 21 -16 21 -9 0 -14 -7 -12
-17z"/>
<path d="M6248 13523 c7 -3 16 -2 19 1 4 3 -2 6 -13 5 -11 0 -14 -3 -6 -6z"/>
<path d="M6242 13498 c6 -18 28 -21 28 -4 0 9 -7 16 -16 16 -9 0 -14 -5 -12
-12z"/>
<path d="M6365 13270 c4 -6 11 -8 16 -5 14 9 11 15 -7 15 -8 0 -12 -5 -9 -10z"/>
<path d="M6590 12925 c0 -8 6 -15 13 -15 8 0 14 7 14 15 0 8 -6 15 -14 15 -7
0 -13 -7 -13 -15z"/>
<path d="M14606 12705 c-3 -10 1 -15 13 -15 10 0 18 7 18 15 0 8 -6 15 -13 15
-6 0 -14 -7 -18 -15z"/>
<path d="M6132 12554 c-29 -14 -61 -39 -73 -55 -11 -16 -35 -37 -52 -45 -17
-9 -54 -38 -81 -63 -28 -26 -67 -58 -86 -71 -19 -13 -56 -43 -81 -66 -26 -23
-68 -54 -95 -67 -27 -14 -62 -39 -79 -56 -16 -18 -48 -43 -71 -56 -24 -14 -52
-37 -63 -52 -12 -14 -35 -36 -52 -48 -114 -85 -946 -892 -989 -960 -10 -16
-66 -79 -124 -140 -58 -60 -106 -114 -106 -118 0 -5 -22 -32 -49 -60 -26 -29
-56 -68 -66 -87 -10 -19 -35 -54 -55 -76 -21 -23 -46 -57 -55 -75 -10 -19 -40
-57 -66 -86 -27 -29 -58 -71 -68 -95 -10 -24 -31 -54 -46 -68 -15 -14 -38 -47
-52 -75 -14 -27 -41 -67 -60 -89 -20 -21 -47 -64 -61 -95 -14 -31 -42 -75 -62
-98 -20 -23 -42 -60 -48 -82 -7 -22 -30 -62 -51 -89 -42 -53 -71 -104 -71
-124 0 -8 -24 -51 -54 -96 -30 -45 -57 -99 -61 -120 -3 -21 -28 -70 -55 -109
-30 -44 -52 -91 -59 -123 -11 -52 -36 -107 -76 -170 -13 -19 -30 -69 -39 -111
-11 -47 -29 -95 -50 -127 -18 -28 -41 -82 -50 -119 -22 -84 -40 -139 -77 -223
-15 -36 -37 -115 -49 -175 -28 -146 -32 -163 -75 -283 -30 -85 -38 -129 -50
-250 -8 -81 -21 -171 -30 -200 -9 -30 -14 -66 -10 -80 3 -17 -4 -56 -20 -101
-15 -44 -25 -97 -25 -129 0 -30 -6 -80 -14 -111 -20 -80 -32 -694 -16 -811 7
-47 15 -134 19 -195 6 -86 12 -120 31 -155 24 -46 29 -77 50 -330 12 -135 38
-241 76 -305 13 -24 28 -72 34 -115 20 -136 31 -174 66 -226 37 -55 54 -101
54 -149 1 -47 23 -96 67 -153 31 -39 43 -64 48 -104 8 -61 35 -118 76 -166 16
-18 32 -45 35 -60 10 -41 33 -82 75 -136 22 -27 39 -54 39 -60 0 -35 25 -87
61 -126 22 -25 52 -67 66 -95 14 -27 43 -69 64 -93 21 -24 41 -57 44 -73 7
-31 80 -122 171 -213 28 -28 60 -67 72 -86 24 -41 364 -380 380 -380 6 0 38
-26 70 -57 114 -112 191 -174 234 -189 24 -8 59 -30 78 -48 19 -19 57 -43 84
-55 27 -12 68 -39 92 -61 24 -22 55 -42 71 -45 60 -13 112 -37 162 -74 30 -23
74 -45 104 -52 71 -17 110 -34 167 -73 37 -25 70 -38 136 -50 59 -11 116 -30
178 -61 82 -40 103 -46 194 -55 67 -6 121 -18 160 -34 132 -56 176 -66 352
-81 96 -8 191 -19 210 -25 19 -5 54 -10 77 -10 23 0 77 -11 120 -25 63 -19
107 -25 228 -30 83 -3 175 -9 205 -15 226 -37 7215 -34 7414 4 41 8 115 15
165 15 70 0 112 7 172 26 44 14 94 25 112 25 18 0 66 6 107 14 41 8 111 17
155 21 143 11 218 27 317 66 58 22 131 42 180 49 118 16 165 30 206 58 51 35
125 62 171 62 52 0 115 23 176 65 30 20 81 41 129 54 53 13 91 30 119 52 22
18 74 45 116 62 42 16 90 42 106 57 17 16 56 39 88 51 32 12 80 42 107 66 30
26 68 49 97 58 28 8 61 28 78 46 17 17 48 43 70 57 64 40 151 121 409 379 262
263 345 352 369 398 8 17 34 48 57 70 27 27 45 54 52 83 6 26 29 65 54 94 47
55 74 105 74 136 0 11 15 41 34 65 45 58 62 93 77 151 6 25 25 63 41 84 44 54
68 106 74 159 3 27 25 89 49 138 47 97 65 152 65 200 0 17 14 68 31 115 56
157 69 219 84 392 9 95 19 193 24 218 5 25 7 66 4 92 -5 39 0 60 22 110 l28
62 -2 355 c-2 341 -3 356 -25 415 -15 39 -25 96 -30 158 -3 53 -11 121 -17
150 -6 29 -14 125 -18 213 -6 128 -12 169 -28 205 -33 73 -51 138 -77 282 -29
156 -56 260 -81 308 -22 43 -40 108 -55 202 -7 43 -23 93 -36 115 -53 88 -64
115 -73 176 -9 64 -35 126 -76 182 -12 17 -32 70 -45 118 -15 59 -34 102 -55
130 -18 23 -43 75 -56 115 -14 44 -37 89 -57 113 -21 24 -42 67 -57 113 -14
47 -35 90 -57 115 -19 22 -47 71 -62 108 -15 37 -42 86 -60 108 -18 22 -40 60
-49 85 -9 25 -39 74 -66 110 -26 36 -53 81 -60 101 -6 20 -25 49 -42 65 -17
16 -43 54 -59 84 -15 30 -44 73 -65 95 -20 22 -48 64 -61 94 -13 30 -42 73
-64 97 -22 24 -40 48 -40 54 0 6 -25 37 -55 70 -30 33 -55 64 -55 69 0 5 -27
39 -60 75 -33 36 -68 83 -79 103 -10 21 -33 52 -51 68 -18 17 -40 46 -50 66
-11 20 -39 54 -62 75 -24 22 -70 72 -103 113 -33 41 -112 126 -175 190 -64 64
-156 163 -205 220 -49 57 -127 135 -174 174 -46 39 -148 134 -225 211 -78 78
-157 153 -176 168 -107 84 -132 107 -165 150 -20 27 -50 55 -68 64 -18 9 -48
31 -67 48 -20 18 -62 49 -93 70 -32 21 -62 47 -68 57 -5 10 -36 37 -68 58 -37
26 -70 59 -90 91 -17 27 -36 50 -42 50 -20 0 -69 -41 -85 -71 -14 -27 -57 -75
-184 -205 -34 -34 -55 -67 -63 -95 -10 -37 -19 -47 -55 -64 -37 -18 -44 -26
-58 -73 -13 -43 -24 -59 -65 -90 -27 -20 -49 -40 -49 -44 0 -4 -20 -25 -44
-48 -34 -32 -47 -54 -61 -103 -9 -34 -20 -66 -25 -72 -11 -15 -3 -93 14 -150
28 -90 19 -124 -54 -195 l-36 -35 -2 -155 c-3 -205 -15 -295 -51 -385 -17 -41
-35 -102 -41 -137 -7 -35 -16 -89 -22 -121 -6 -32 -24 -77 -39 -100 -16 -24
-39 -86 -54 -142 -31 -122 -49 -168 -80 -209 -13 -17 -27 -49 -30 -71 -12 -63
-44 -141 -66 -161 -12 -11 -36 -51 -54 -89 -17 -39 -46 -86 -62 -105 -17 -19
-41 -55 -53 -80 -13 -25 -37 -63 -55 -85 -18 -22 -39 -53 -48 -70 -14 -28
-126 -162 -192 -231 -17 -17 -44 -46 -62 -66 -20 -22 -48 -40 -77 -48 -74 -20
-76 -17 -76 117 0 70 -8 167 -20 240 -11 67 -22 154 -26 195 -7 83 -28 161
-56 200 -10 14 -27 72 -39 127 -16 81 -26 106 -48 129 -29 29 -48 104 -36 142
9 29 75 29 75 0 0 -16 7 -20 30 -20 23 0 30 4 30 20 0 16 7 20 30 20 23 0 30
4 30 20 0 15 7 20 25 20 15 0 25 6 25 15 0 8 14 17 35 21 34 6 40 15 36 57 -1
9 6 20 16 24 10 3 22 12 26 20 4 7 21 13 37 13 20 0 31 6 35 20 3 11 15 20 25
20 13 0 17 5 13 20 -5 18 0 20 36 20 34 0 41 3 41 20 0 14 7 20 21 20 13 0 20
6 18 18 -4 44 1 52 41 58 24 4 40 12 40 20 0 8 6 14 14 14 9 0 17 15 21 40 6
38 9 40 41 40 27 0 34 4 34 20 0 13 7 20 20 20 19 0 25 13 21 53 -2 14 6 17
38 17 l41 0 0 40 c0 28 4 40 14 40 10 0 16 13 18 38 3 35 5 37 39 40 33 3 38
7 43 38 5 21 13 34 23 34 11 0 14 7 11 25 -5 21 -1 25 19 25 23 0 25 3 21 35
-4 31 -1 35 19 35 16 0 23 6 23 20 0 11 7 20 15 20 10 0 15 11 15 35 0 19 5
35 10 35 6 0 10 8 10 18 0 9 13 28 30 42 16 14 30 31 30 38 0 7 7 15 15 18 8
4 15 12 15 19 0 8 6 20 13 27 14 13 25 49 32 98 2 14 4 25 5 25 8 0 4 42 -4
43 -6 0 -21 3 -33 6 -14 3 -29 -2 -39 -12 -9 -9 -24 -17 -32 -19 -9 -1 -23
-10 -32 -20 -23 -29 -87 -73 -104 -73 -9 0 -30 -12 -46 -27 -44 -40 -50 -45
-105 -83 -27 -18 -69 -51 -93 -72 -23 -21 -56 -41 -72 -45 -17 -3 -30 -9 -30
-13 0 -4 -10 -10 -22 -14 -13 -3 -37 -19 -55 -36 -18 -16 -37 -30 -43 -30 -22
0 -106 -49 -134 -79 -17 -17 -38 -31 -47 -31 -10 0 -21 -4 -24 -10 -3 -5 -17
-10 -31 -10 -33 0 -83 -26 -114 -59 -29 -31 -61 -47 -110 -56 -19 -4 -72 -27
-117 -51 -46 -24 -121 -55 -168 -69 -47 -13 -95 -34 -108 -46 -47 -44 -78 -54
-176 -54 -82 0 -95 -2 -105 -19 -6 -11 -30 -40 -52 -65 -35 -39 -43 -55 -49
-105 -10 -83 -32 -152 -70 -221 -21 -38 -39 -93 -51 -150 -10 -51 -36 -131
-60 -185 -23 -52 -47 -126 -54 -165 -13 -76 -43 -170 -71 -224 -19 -36 -31
-88 -48 -204 -6 -42 -24 -96 -47 -143 -29 -59 -39 -95 -50 -182 -10 -71 -23
-124 -39 -157 -38 -78 -55 -137 -70 -248 -16 -125 -30 -180 -60 -232 -26 -46
-51 -141 -60 -235 -9 -85 -32 -177 -55 -216 -25 -43 -46 -123 -59 -224 -15
-114 -30 -178 -51 -220 -21 -42 -56 -175 -64 -245 -18 -142 -32 -207 -62 -280
-33 -82 -40 -115 -69 -329 -9 -67 -34 -176 -56 -248 -26 -86 -45 -172 -54
-255 -15 -121 -24 -163 -80 -373 -14 -54 -31 -159 -39 -245 -10 -103 -23 -174
-40 -227 -33 -100 -64 -274 -81 -463 -9 -96 -23 -180 -40 -235 -14 -47 -28
-110 -31 -140 -10 -113 -60 -383 -76 -412 -9 -19 -34 -23 -56 -10 -20 13 -49
157 -56 280 -4 70 -18 158 -36 230 -34 139 -66 321 -80 452 -10 97 -35 209
-71 314 -11 32 -27 118 -35 190 -16 136 -49 290 -84 388 -11 31 -24 98 -30
150 -13 118 -45 256 -76 331 -16 36 -31 109 -43 200 -19 142 -26 167 -76 287
-17 39 -33 104 -41 166 -16 126 -31 190 -54 230 -28 49 -48 121 -69 244 -22
127 -40 187 -71 230 -21 30 -32 75 -50 205 -6 43 -19 95 -30 115 -57 105 -71
147 -85 244 -16 118 -27 155 -67 214 -22 32 -33 67 -47 150 -19 110 -36 163
-70 210 -10 15 -28 74 -40 131 -15 75 -32 123 -61 176 -22 40 -40 86 -40 102
0 44 -26 122 -69 210 -21 43 -44 103 -50 133 -14 65 -40 139 -56 160 -23 28
-36 61 -56 138 -12 45 -35 98 -54 127 -19 28 -44 82 -56 120 -12 39 -36 91
-54 116 -30 43 -41 70 -96 227 -16 47 -36 77 -77 118 -49 50 -60 57 -111 64
-70 10 -116 29 -160 68 -21 19 -49 32 -77 36 -58 8 -142 46 -150 69 -3 9 -12
17 -20 17 -8 0 -14 5 -14 10 0 6 -8 10 -17 10 -42 0 -157 46 -187 75 -19 19
-58 40 -101 54 -50 16 -82 34 -117 67 -26 24 -56 44 -66 44 -30 0 -89 28 -95
45 -4 8 -13 15 -21 15 -7 0 -16 6 -19 13 -2 6 -32 27 -65 45 -34 18 -80 50
-104 71 -23 22 -55 42 -71 45 -16 3 -51 26 -79 51 -28 25 -56 45 -62 45 -7 0
-41 25 -76 55 -35 30 -67 55 -70 55 -4 0 -19 -11 -33 -25 -22 -23 -27 -24 -40
-11 -8 8 -17 45 -21 82 -4 37 -12 76 -17 88 -16 31 -126 133 -152 140 -28 8
-46 23 -80 68 -15 20 -40 45 -56 54 -16 9 -41 36 -55 58 -14 23 -46 60 -70 83
-30 28 -45 52 -50 79 -10 48 -26 71 -66 92 -18 10 -42 38 -58 67 -15 27 -37
55 -49 61 -42 20 -61 45 -67 88 -6 36 -12 45 -41 59 -19 9 -41 30 -50 47 -14
27 -20 30 -63 30 -32 0 -66 -9 -100 -26z m10 -865 c25 -13 19 -55 -12 -100
l-21 -28 26 -7 c19 -5 25 -12 25 -35 0 -19 5 -29 15 -29 9 0 15 -9 15 -25 0
-20 5 -25 26 -25 19 0 25 -4 20 -15 -3 -10 1 -15 14 -15 15 0 21 -12 30 -56
15 -73 8 -97 -39 -131 -22 -15 -47 -45 -56 -65 -10 -24 -31 -46 -60 -62 -24
-14 -53 -40 -65 -56 -12 -17 -40 -40 -62 -51 -39 -20 -650 -624 -784 -775 -34
-38 -82 -91 -107 -119 -25 -27 -52 -67 -60 -87 -8 -20 -27 -44 -41 -53 -14 -9
-38 -38 -54 -63 -29 -46 -79 -102 -91 -102 -4 0 -22 -26 -41 -57 -18 -32 -52
-77 -75 -100 -26 -25 -45 -54 -49 -75 -4 -20 -21 -47 -42 -68 -20 -19 -49 -62
-65 -97 -16 -36 -44 -77 -67 -97 -32 -29 -40 -44 -45 -81 -4 -39 -13 -55 -61
-105 -37 -38 -56 -67 -56 -83 0 -45 -29 -108 -74 -158 -37 -41 -45 -57 -51
-104 -6 -48 -12 -60 -55 -103 -36 -36 -50 -58 -55 -88 -3 -21 -8 -54 -11 -72
-3 -21 -23 -53 -55 -88 -27 -30 -49 -64 -50 -77 -1 -32 -5 -74 -14 -136 -7
-47 -15 -62 -57 -105 l-49 -51 -10 -125 c-11 -130 -21 -160 -75 -219 -29 -32
-45 -136 -43 -287 2 -112 0 -125 -22 -160 -30 -50 -44 -64 -62 -64 -19 0 -24
-67 -38 -562 -6 -208 -14 -390 -19 -405 -5 -16 -9 -22 -9 -15 -1 6 -8 12 -16
12 -8 0 -16 1 -16 3 -4 9 -19 289 -25 470 l-7 217 -38 0 -39 0 0 60 0 60 -40
0 -40 0 0 -82 c0 -117 -22 -378 -32 -378 -4 0 -8 -45 -8 -99 0 -106 -6 -143
-21 -119 -5 7 -9 84 -9 170 0 94 -4 158 -10 160 -6 2 -11 163 -12 438 -3 418
-2 437 17 475 17 33 25 40 50 40 40 0 42 13 44 203 1 194 11 235 62 268 43 27
46 36 52 184 5 109 17 142 62 170 30 18 32 25 44 107 17 126 16 123 66 176 25
27 46 56 46 65 2 16 4 47 7 101 1 16 21 42 53 72 48 44 51 50 59 111 9 78 17
94 69 139 33 30 41 45 50 93 9 46 19 68 52 103 41 45 69 97 69 131 0 22 26 54
57 70 13 7 28 33 38 63 12 36 32 66 66 98 30 29 54 64 66 96 13 36 29 57 56
74 29 19 40 35 49 68 7 30 21 52 47 72 20 16 43 42 51 58 23 44 62 95 98 127
18 16 43 50 55 75 15 31 32 51 54 60 23 10 36 25 44 50 13 39 46 81 64 81 18
0 45 34 54 66 5 20 21 37 50 53 29 16 47 35 57 60 9 24 29 45 58 63 27 16 51
41 61 62 10 20 29 43 44 52 14 9 38 34 54 55 15 22 43 49 63 61 19 11 48 40
64 64 18 26 43 48 63 55 22 8 43 27 60 55 17 28 37 46 61 55 23 8 41 24 50 44
20 41 44 61 84 70 25 5 37 16 49 41 11 22 31 41 59 54 23 12 53 37 65 56 16
24 44 45 84 63 33 15 81 49 107 74 48 48 73 56 110 36z m9123 -365 c11 -11 14
-25 10 -42 -7 -29 7 -42 45 -42 14 0 36 -7 49 -16 20 -15 23 -23 18 -67 l-4
-49 44 6 c35 5 47 2 63 -14 23 -23 24 -32 10 -79 l-9 -33 53 6 c66 9 80 -4 74
-70 l-3 -46 43 6 c35 5 46 2 63 -15 18 -18 20 -29 15 -67 l-6 -45 39 6 c59 8
84 -14 79 -69 l-3 -44 45 0 c52 0 70 -13 70 -50 0 -14 -5 -31 -12 -38 -17 -17
-47 -15 -54 3 -5 11 -21 15 -60 15 -52 0 -54 1 -56 28 0 15 -2 32 -3 37 -2 6
-3 20 -4 33 -1 20 -6 22 -51 22 -40 0 -50 3 -52 18 -8 79 -16 92 -59 92 -33 0
-39 -3 -40 -22 -8 -177 -6 -234 11 -258 22 -30 31 -88 18 -112 -8 -16 -3 -18
45 -18 36 0 59 -5 67 -15 16 -19 7 -94 -12 -106 -8 -5 16 -9 60 -9 l72 0 0
-60 0 -60 50 0 c28 0 50 -3 51 -7 17 -155 16 -163 -15 -163 -31 0 -50 24 -44
55 3 14 1 25 -4 25 -6 0 -8 7 -4 15 4 12 -4 15 -43 15 -59 0 -74 15 -75 73 -1
49 -9 60 -61 81 -21 9 -35 19 -32 22 6 6 -27 39 -92 92 -23 18 -39 38 -36 43
4 5 -4 14 -17 20 -13 6 -45 37 -73 68 -27 31 -71 73 -97 95 -27 21 -47 40 -45
42 7 7 -168 176 -191 185 -13 5 -21 13 -17 18 3 6 -3 14 -12 20 -10 6 -14 11
-9 11 13 0 -30 40 -43 40 -6 0 -22 5 -36 12 -20 9 -25 18 -23 37 3 24 7 26 61
29 49 3 57 6 57 22 0 11 5 20 10 20 14 0 12 27 -2 33 -7 3 0 6 15 6 27 1 28 3
27 49 -3 79 -2 82 25 82 14 0 26 6 26 13 1 6 3 22 4 35 2 17 -5 26 -21 33 -36
13 -33 56 4 62 58 9 81 6 97 -9z m-7995 -241 c0 -10 7 -31 15 -47 9 -16 21
-62 27 -103 7 -50 15 -73 24 -73 8 0 14 -4 14 -9 0 -14 42 -56 63 -64 9 -3 17
-13 17 -22 0 -8 7 -15 15 -15 10 0 15 -10 15 -34 0 -32 2 -35 40 -41 23 -4 40
-12 40 -20 0 -7 9 -15 20 -18 15 -4 20 -14 20 -41 0 -35 1 -36 36 -36 27 0 37
-5 41 -20 3 -11 12 -20 19 -20 9 0 14 -12 14 -34 0 -32 2 -35 40 -41 23 -4 40
-12 40 -20 0 -7 9 -15 20 -18 15 -4 20 -14 20 -41 0 -34 1 -36 35 -36 24 0 35
-5 35 -15 0 -10 10 -15 29 -15 24 0 28 -4 24 -19 -4 -16 1 -20 29 -23 25 -2
34 -8 36 -25 2 -15 10 -23 23 -23 10 0 19 -7 19 -15 0 -8 9 -15 20 -15 13 0
20 -7 20 -20 0 -11 7 -20 15 -20 8 0 15 -9 15 -20 0 -15 7 -20 25 -20 16 0 25
-6 25 -15 0 -10 11 -15 35 -15 31 0 35 -3 35 -25 0 -20 5 -25 25 -25 14 0 34
-9 45 -20 11 -11 28 -20 38 -20 26 0 42 -59 41 -146 -1 -74 -9 -104 -50 -174
-24 -39 -28 -60 -33 -165 -4 -66 -9 -133 -11 -150 -3 -16 -7 -57 -9 -90 -3
-33 -8 -97 -12 -142 -5 -65 -3 -91 10 -123 19 -47 8 -80 -26 -80 -43 0 -151
86 -228 181 -41 51 -94 114 -116 139 -23 25 -49 61 -59 80 -10 19 -33 52 -52
74 -19 21 -42 54 -50 74 -8 20 -37 71 -64 113 -27 42 -54 91 -61 110 -6 19
-26 56 -45 82 -18 27 -42 79 -53 115 -12 37 -38 103 -59 147 -23 47 -46 116
-57 168 -10 52 -27 103 -40 123 -32 46 -52 120 -63 236 -9 95 -16 117 -69 227
-31 64 -35 158 -13 259 11 49 18 62 32 62 11 0 19 -7 19 -17z m7730 -53 c0 -5
-7 -10 -16 -10 -8 0 -12 5 -9 10 3 6 10 10 16 10 5 0 9 -4 9 -10z m-3 -36 c-3
-3 -12 -4 -19 -1 -8 3 -5 6 6 6 11 1 17 -2 13 -5z m1067 -470 c17 -16 19 -35
10 -71 -9 -34 -57 -32 -72 2 -17 37 -15 62 6 74 24 15 38 13 56 -5z m-117 0
c-3 -3 -12 -4 -19 -1 -8 3 -5 6 6 6 11 1 17 -2 13 -5z m123 -113 c0 -6 -5 -13
-10 -16 -15 -9 -43 3 -35 15 8 13 45 13 45 1z m96 -23 c4 -6 8 -21 9 -32 0
-12 7 -31 13 -43 7 -13 9 -23 5 -23 -4 0 1 -6 12 -14 17 -12 17 -13 -6 -19
-14 -4 -34 -4 -47 -1 -19 6 -21 11 -17 50 2 25 0 44 -5 44 -11 0 -14 33 -3 43
10 11 31 8 39 -5z m138 -190 c27 -56 22 -78 -18 -78 -43 0 -64 38 -47 84 7 18
7 26 0 26 -6 0 -7 5 -4 10 16 26 45 8 69 -42z m105 -107 c47 -44 38 -101 -15
-101 -51 0 -75 74 -33 103 15 11 17 16 7 20 -8 3 -8 6 -2 6 7 1 26 -12 43 -28z
m-380 -142 c33 -35 36 -91 5 -103 -30 -12 -61 11 -66 48 -2 20 -1 36 3 36 4 0
9 9 12 20 7 26 21 25 46 -1z m503 -14 c10 -21 9 -29 -5 -43 -29 -28 -69 12
-53 54 9 23 45 16 58 -11z m-378 -127 c27 -39 16 -98 -19 -98 -22 0 -55 41
-55 68 0 52 46 70 74 30z m477 -10 c1 -7 1 -16 0 -21 -1 -4 5 -22 13 -41 18
-43 5 -72 -24 -54 -16 10 -19 23 -19 70 1 43 5 58 15 58 8 0 15 -6 15 -12z
m-363 -144 c9 -16 0 -89 -11 -101 -9 -8 -34 20 -30 34 2 6 -1 14 -6 18 -12 7
-14 44 -5 69 7 18 37 7 52 -20z m486 -33 c24 -26 18 -75 -10 -79 -31 -4 -47
22 -40 63 8 39 24 44 50 16z m-376 -152 c32 -30 25 -73 -13 -77 -31 -4 -45 10
-45 49 0 23 16 49 30 49 3 0 16 -9 28 -21z m482 -8 c5 -11 9 -30 9 -43 -1 -13
-1 -27 1 -33 5 -21 -1 -35 -15 -35 -8 0 -15 3 -16 8 0 4 -2 21 -4 37 -2 17 -4
35 -5 40 -9 42 12 60 30 26z m-365 -169 c-4 -37 -22 -49 -40 -26 -15 20 -19
52 -9 79 6 15 9 14 29 -7 12 -13 21 -33 20 -46z m487 -19 c22 -20 23 -61 2
-88 -15 -20 -15 -20 -34 5 -22 28 -26 70 -8 88 15 15 18 15 40 -5z m-362 -180
c0 -47 -44 -60 -60 -17 -8 21 -7 29 7 39 19 14 53 0 53 -22z m485 -33 c18 -34
19 -64 5 -91 -16 -28 -37 -23 -56 13 -13 26 -14 38 -5 70 14 46 35 49 56 8z
m-385 -139 c15 -29 12 -81 -5 -87 -36 -14 -49 28 -29 94 5 18 22 15 34 -7z
m495 -68 c4 -27 9 -55 11 -64 2 -9 -4 -23 -14 -33 -17 -15 -20 -15 -32 -1 -8
9 -13 33 -13 53 1 85 2 92 22 92 16 0 21 -9 26 -47z m-378 -110 c5 -16 8 -34
7 -40 -1 -7 -2 -22 -3 -33 -1 -22 -37 -29 -39 -7 -1 6 -4 27 -8 44 -12 61 25
91 43 36z m492 -130 c16 -55 14 -93 -5 -100 -31 -12 -41 21 -35 115 2 36 29
26 40 -15z m-374 -97 c10 -51 3 -81 -19 -81 -23 0 -39 46 -30 88 8 41 41 37
49 -7z m488 -160 c19 -19 10 -78 -11 -74 -20 4 -32 47 -20 71 11 21 13 21 31
3z m-373 -163 c0 -7 -4 -13 -10 -13 -5 0 -7 -7 -4 -15 4 -8 1 -15 -4 -15 -14
0 -27 65 -16 81 5 9 11 7 21 -6 7 -11 13 -25 13 -32z m490 -160 c0 -41 -25
-45 -33 -6 -6 31 13 69 25 50 4 -7 8 -27 8 -44z m-376 -95 c4 -22 2 -37 -8
-47 -23 -22 -43 1 -38 44 6 47 37 49 46 3z m106 -364 c0 -37 -5 -41 -24 -21
-12 11 -12 19 0 55 7 24 24 1 24 -34z m-13940 -1379 c13 -34 32 -501 22 -545
-6 -25 -13 -35 -27 -35 -36 0 -43 59 -36 330 7 266 15 318 41 250z m385 -245
c16 -17 17 -32 11 -117 -9 -128 -16 -183 -26 -183 -24 0 -51 260 -31 298 14
27 23 28 46 2z m-265 -496 c6 -14 10 -40 10 -59 0 -18 5 -55 11 -82 14 -62 0
-106 -33 -101 -40 5 -48 42 -36 149 6 51 12 100 14 107 6 20 24 13 34 -14z
m380 -28 c1 0 4 -29 7 -64 7 -76 -8 -105 -38 -73 -33 35 -19 158 16 145 8 -3
15 -7 15 -8z m106 -315 c-4 -5 -2 -11 3 -13 11 -4 2 -58 -9 -58 -13 0 -22 38
-15 60 3 11 11 20 16 20 6 0 8 -4 5 -9z m-378 -76 c-1 -22 -7 -35 -16 -35 -7
0 -10 5 -6 11 3 6 1 14 -5 18 -15 10 -3 41 15 41 10 0 14 -10 12 -35z m2 -75
c0 -5 -4 -10 -10 -10 -5 0 -10 5 -10 10 0 6 5 10 10 10 6 0 10 -4 10 -10z
m499 -84 c9 -11 6 -46 -4 -46 -17 0 -35 15 -35 29 0 32 20 40 39 17z m-379
-141 c11 -29 4 -55 -15 -55 -17 0 -28 34 -20 60 9 27 24 25 35 -5z m496 -100
c8 -19 -4 -65 -16 -65 -15 0 -29 35 -23 58 6 25 31 29 39 7z m-389 -171 c-9
-9 -28 6 -21 18 4 6 10 6 17 -1 6 -6 8 -13 4 -17z m228 -344 c3 -5 -1 -10 -10
-10 -9 0 -13 5 -10 10 3 6 8 10 10 10 2 0 7 -4 10 -10z"/>
<path d="M15450 10911 c0 -10 -3 -33 -6 -50 l-6 -31 61 0 c60 0 60 0 51 25 -6
16 -6 25 0 25 6 0 3 11 -6 25 -13 20 -25 25 -55 25 -31 0 -39 -4 -39 -19z"/>
<path d="M7055 12340 c4 -6 11 -8 16 -5 14 9 11 15 -7 15 -8 0 -12 -5 -9 -10z"/>
<path d="M7390 12006 c0 -10 9 -16 21 -16 24 0 21 23 -4 28 -10 2 -17 -3 -17
-12z"/>
<path d="M7975 11540 c3 -5 13 -10 21 -10 8 0 14 5 14 10 0 6 -9 10 -21 10
-11 0 -17 -4 -14 -10z"/>
<path d="M12093 10959 c14 -8 22 -8 30 0 8 8 3 11 -18 11 -26 -1 -28 -2 -12
-11z"/>
<path d="M12207 10593 c-16 -4 -15 -7 8 -19 41 -21 81 -18 81 6 0 16 -7 20
-36 19 -19 -1 -43 -3 -53 -6z"/>
<path d="M9510 10465 c0 -11 12 -15 44 -15 46 0 68 13 40 24 -32 12 -84 7 -84
-9z"/>
<path d="M11743 10468 c18 -11 87 -10 87 2 0 6 -22 9 -50 8 -27 -1 -44 -6 -37
-10z"/>
<path d="M10212 10350 c2 -10 14 -15 36 -14 17 0 226 1 462 2 337 2 430 5 430
15 0 9 -99 12 -465 12 -408 0 -465 -2 -463 -15z"/>
</g>
</svg>
